{
    "asset" : {
        "generator" : "Khronos glTF Blender I/O v3.2.43",
        "version" : "2.0"
    },
    "scene" : 0,
    "scenes" : [
        {
            "name" : "Scene",
            "nodes" : [
                0,
                1
            ]
        }
    ],
    "nodes" : [
        {
            "mesh" : 0,
            "name" : "Cylinder",
            "rotation" : [
                0.7071070671081543,
                0,
                0,
                0.7071065902709961
            ]
        },
        {
            "mesh" : 1,
            "name" : "Cube"
        }
    ],
    "materials" : [
        {
            "doubleSided" : true,
            "emissiveFactor" : [
                1,
                1,
                1
            ],
            "name" : "Material",
            "pbrMetallicRoughness" : {
                "baseColorFactor" : [
                    0,
                    0,
                    0,
                    1
                ]
            }
        },
        {
            "doubleSided" : true,
            "name" : "Black metal",
            "pbrMetallicRoughness" : {}
        },
        {
            "doubleSided" : true,
            "name" : "Red metal",
            "pbrMetallicRoughness" : {}
        }
    ],
    "meshes" : [
        {
            "name" : "Cylinder.001",
            "primitives" : [
                {
                    "attributes" : {
                        "POSITION" : 0,
                        "NORMAL" : 1
                    },
                    "indices" : 2,
                    "material" : 0
                },
                {
                    "attributes" : {
                        "POSITION" : 3,
                        "NORMAL" : 4
                    },
                    "indices" : 5,
                    "material" : 1
                },
                {
                    "attributes" : {
                        "POSITION" : 6,
                        "NORMAL" : 7
                    },
                    "indices" : 8,
                    "material" : 2
                }
            ]
        },
        {
            "name" : "Cube.001",
            "primitives" : [
                {
                    "attributes" : {
                        "POSITION" : 9,
                        "NORMAL" : 10
                    },
                    "indices" : 11,
                    "material" : 1
                },
                {
                    "attributes" : {
                        "POSITION" : 12,
                        "NORMAL" : 13
                    },
                    "indices" : 14,
                    "material" : 2
                }
            ]
        }
    ],
    "accessors" : [
        {
            "bufferView" : 0,
            "componentType" : 5126,
            "count" : 482,
            "max" : [
                0.4701937437057495,
                0.6263114213943481,
                -0.5029979944229126
            ],
            "min" : [
                0.37245917320251465,
                0.5285768508911133,
                -0.6007327437400818
            ],
            "type" : "VEC3"
        },
        {
            "bufferView" : 1,
            "componentType" : 5126,
            "count" : 482,
            "type" : "VEC3"
        },
        {
            "bufferView" : 2,
            "componentType" : 5123,
            "count" : 2880,
            "type" : "SCALAR"
        },
        {
            "bufferView" : 3,
            "componentType" : 5126,
            "count" : 624,
            "max" : [
                0.5814079642295837,
                0.7027558088302612,
                -0.39089274406433105
            ],
            "min" : [
                0.297724187374115,
                0.4425991177558899,
                -0.6787356734275818
            ],
            "type" : "VEC3"
        },
        {
            "bufferView" : 4,
            "componentType" : 5126,
            "count" : 624,
            "type" : "VEC3"
        },
        {
            "bufferView" : 5,
            "componentType" : 5123,
            "count" : 2484,
            "type" : "SCALAR"
        },
        {
            "bufferView" : 6,
            "componentType" : 5126,
            "count" : 224,
            "max" : [
                0.5509133338928223,
                0.7076801061630249,
                -0.432395875453949
            ],
            "min" : [
                0.3283883035182953,
                0.4939209818840027,
                -0.6858371496200562
            ],
            "type" : "VEC3"
        },
        {
            "bufferView" : 7,
            "componentType" : 5126,
            "count" : 224,
            "type" : "VEC3"
        },
        {
            "bufferView" : 8,
            "componentType" : 5123,
            "count" : 960,
            "type" : "SCALAR"
        },
        {
            "bufferView" : 9,
            "componentType" : 5126,
            "count" : 500,
            "max" : [
                0.8784722089767456,
                1.2213478088378906,
                1.2239279747009277
            ],
            "min" : [
                0,
                -1.1255465745925903,
                -0.9454910159111023
            ],
            "type" : "VEC3"
        },
        {
            "bufferView" : 10,
            "componentType" : 5126,
            "count" : 500,
            "type" : "VEC3"
        },
        {
            "bufferView" : 11,
            "componentType" : 5123,
            "count" : 2637,
            "type" : "SCALAR"
        },
        {
            "bufferView" : 12,
            "componentType" : 5126,
            "count" : 123,
            "max" : [
                0.8194444179534912,
                1.0659010410308838,
                1.1409028768539429
            ],
            "min" : [
                0,
                -0.7085517048835754,
                -0.9454910159111023
            ],
            "type" : "VEC3"
        },
        {
            "bufferView" : 13,
            "componentType" : 5126,
            "count" : 123,
            "type" : "VEC3"
        },
        {
            "bufferView" : 14,
            "componentType" : 5123,
            "count" : 300,
            "type" : "SCALAR"
        }
    ],
    "bufferViews" : [
        {
            "buffer" : 0,
            "byteLength" : 5784,
            "byteOffset" : 0
        },
        {
            "buffer" : 0,
            "byteLength" : 5784,
            "byteOffset" : 5784
        },
        {
            "buffer" : 0,
            "byteLength" : 5760,
            "byteOffset" : 11568
        },
        {
            "buffer" : 0,
            "byteLength" : 7488,
            "byteOffset" : 17328
        },
        {
            "buffer" : 0,
            "byteLength" : 7488,
            "byteOffset" : 24816
        },
        {
            "buffer" : 0,
            "byteLength" : 4968,
            "byteOffset" : 32304
        },
        {
            "buffer" : 0,
            "byteLength" : 2688,
            "byteOffset" : 37272
        },
        {
            "buffer" : 0,
            "byteLength" : 2688,
            "byteOffset" : 39960
        },
        {
            "buffer" : 0,
            "byteLength" : 1920,
            "byteOffset" : 42648
        },
        {
            "buffer" : 0,
            "byteLength" : 6000,
            "byteOffset" : 44568
        },
        {
            "buffer" : 0,
            "byteLength" : 6000,
            "byteOffset" : 50568
        },
        {
            "buffer" : 0,
            "byteLength" : 5274,
            "byteOffset" : 56568
        },
        {
            "buffer" : 0,
            "byteLength" : 1476,
            "byteOffset" : 61844
        },
        {
            "buffer" : 0,
            "byteLength" : 1476,
            "byteOffset" : 63320
        },
        {
            "buffer" : 0,
            "byteLength" : 600,
            "byteOffset" : 64796
        }
    ],
    "buffers" : [
        {
            "byteLength" : 65396,
            "uri" : "data:application/octet-stream;base64,"
        }
    ]
}
