{
    "asset" : {
        "generator" : "Khronos glTF Blender I/O v3.2.43",
        "version" : "2.0"
    },
    "scene" : 0,
    "scenes" : [
        {
            "name" : "Scene",
            "nodes" : [
                0,
                1
            ]
        }
    ],
    "nodes" : [
        {
            "mesh" : 0,
            "name" : "Cylinder",
            "rotation" : [
                0.7071070671081543,
                0,
                0,
                0.7071065902709961
            ]
        },
        {
            "mesh" : 1,
            "name" : "Cube"
        }
    ],
    "materials" : [
        {
            "doubleSided" : true,
            "emissiveFactor" : [
                1,
                1,
                1
            ],
            "name" : "Material",
            "pbrMetallicRoughness" : {
                "baseColorFactor" : [
                    0,
                    0,
                    0,
                    1
                ]
            }
        },
        {
            "doubleSided" : true,
            "name" : "Black metal",
            "pbrMetallicRoughness" : {}
        },
        {
            "doubleSided" : true,
            "name" : "Red metal",
            "pbrMetallicRoughness" : {}
        }
    ],
    "meshes" : [
        {
            "name" : "Cylinder.001",
            "primitives" : [
                {
                    "attributes" : {
                        "POSITION" : 0,
                        "NORMAL" : 1
                    },
                    "indices" : 2,
                    "material" : 0
                },
                {
                    "attributes" : {
                        "POSITION" : 3,
                        "NORMAL" : 4
                    },
                    "indices" : 5,
                    "material" : 1
                },
                {
                    "attributes" : {
                        "POSITION" : 6,
                        "NORMAL" : 7
                    },
                    "indices" : 8,
                    "material" : 2
                }
            ]
        },
        {
            "name" : "Cube.001",
            "primitives" : [
                {
                    "attributes" : {
                        "POSITION" : 9,
                        "NORMAL" : 10
                    },
                    "indices" : 11,
                    "material" : 1
                },
                {
                    "attributes" : {
                        "POSITION" : 12,
                        "NORMAL" : 13
                    },
                    "indices" : 14,
                    "material" : 2
                }
            ]
        }
    ],
    "accessors" : [
        {
            "bufferView" : 0,
            "componentType" : 5126,
            "count" : 964,
            "max" : [
                0.4701937437057495,
                0.6263114213943481,
                -0.5029979944229126
            ],
            "min" : [
                -0.4701937437057495,
                0.5285768508911133,
                -0.6007327437400818
            ],
            "type" : "VEC3"
        },
        {
            "bufferView" : 1,
            "componentType" : 5126,
            "count" : 964,
            "type" : "VEC3"
        },
        {
            "bufferView" : 2,
            "componentType" : 5123,
            "count" : 5760,
            "type" : "SCALAR"
        },
        {
            "bufferView" : 3,
            "componentType" : 5126,
            "count" : 1440,
            "max" : [
                0.5814079642295837,
                0.7027558088302612,
                -0.39089274406433105
            ],
            "min" : [
                -0.5814079642295837,
                0.4425991177558899,
                -0.6787356734275818
            ],
            "type" : "VEC3"
        },
        {
            "bufferView" : 4,
            "componentType" : 5126,
            "count" : 1440,
            "type" : "VEC3"
        },
        {
            "bufferView" : 5,
            "componentType" : 5123,
            "count" : 4968,
            "type" : "SCALAR"
        },
        {
            "bufferView" : 6,
            "componentType" : 5126,
            "count" : 576,
            "max" : [
                0.5509133338928223,
                0.7076801061630249,
                -0.432395875453949
            ],
            "min" : [
                -0.5509133338928223,
                0.4939209818840027,
                -0.6858371496200562
            ],
            "type" : "VEC3"
        },
        {
            "bufferView" : 7,
            "componentType" : 5126,
            "count" : 576,
            "type" : "VEC3"
        },
        {
            "bufferView" : 8,
            "componentType" : 5123,
            "count" : 1920,
            "type" : "SCALAR"
        },
        {
            "bufferView" : 9,
            "componentType" : 5126,
            "count" : 17211,
            "max" : [
                0.8574148416519165,
                1.1943877935409546,
                1.1786621809005737
            ],
            "min" : [
                -0.8574147820472717,
                -1.00111985206604,
                -0.9230694770812988
            ],
            "type" : "VEC3"
        },
        {
            "bufferView" : 10,
            "componentType" : 5126,
            "count" : 17211,
            "type" : "VEC3"
        },
        {
            "bufferView" : 11,
            "componentType" : 5123,
            "count" : 84336,
            "type" : "SCALAR"
        },
        {
            "bufferView" : 12,
            "componentType" : 5126,
            "count" : 2087,
            "max" : [
                0.7988637685775757,
                1.048421025276184,
                1.132780909538269
            ],
            "min" : [
                -0.7988637685775757,
                -0.7036672234535217,
                -0.9200338125228882
            ],
            "type" : "VEC3"
        },
        {
            "bufferView" : 13,
            "componentType" : 5126,
            "count" : 2087,
            "type" : "VEC3"
        },
        {
            "bufferView" : 14,
            "componentType" : 5123,
            "count" : 9600,
            "type" : "SCALAR"
        }
    ],
    "bufferViews" : [
        {
            "buffer" : 0,
            "byteLength" : 11568,
            "byteOffset" : 0
        },
        {
            "buffer" : 0,
            "byteLength" : 11568,
            "byteOffset" : 11568
        },
        {
            "buffer" : 0,
            "byteLength" : 11520,
            "byteOffset" : 23136
        },
        {
            "buffer" : 0,
            "byteLength" : 17280,
            "byteOffset" : 34656
        },
        {
            "buffer" : 0,
            "byteLength" : 17280,
            "byteOffset" : 51936
        },
        {
            "buffer" : 0,
            "byteLength" : 9936,
            "byteOffset" : 69216
        },
        {
            "buffer" : 0,
            "byteLength" : 6912,
            "byteOffset" : 79152
        },
        {
            "buffer" : 0,
            "byteLength" : 6912,
            "byteOffset" : 86064
        },
        {
            "buffer" : 0,
            "byteLength" : 3840,
            "byteOffset" : 92976
        },
        {
            "buffer" : 0,
            "byteLength" : 206532,
            "byteOffset" : 96816
        },
        {
            "buffer" : 0,
            "byteLength" : 206532,
            "byteOffset" : 303348
        },
        {
            "buffer" : 0,
            "byteLength" : 168672,
            "byteOffset" : 509880
        },
        {
            "buffer" : 0,
            "byteLength" : 25044,
            "byteOffset" : 678552
        },
        {
            "buffer" : 0,
            "byteLength" : 25044,
            "byteOffset" : 703596
        },
        {
            "buffer" : 0,
            "byteLength" : 19200,
            "byteOffset" : 728640
        }
    ],
    "buffers" : [
        {
            "byteLength" : 747840,
            "uri" : "data:application/octet-stream;base64,"
        }
    ]
}
